<?xml version="1.0" encoding="UTF-8" standalone="no"?>
<!-- Uploaded to: SVG Repo, www.svgrepo.com, Generator: SVG Repo Mixer Tools -->

<svg
   width="800"
   height="800"
   viewBox="0 0 24 24"
   fill="none"
   version="1.1"
   id="svg10"
   sodipodi:docname="serial-port.svg"
   xmlns:inkscape="http://www.inkscape.org/namespaces/inkscape"
   xmlns:sodipodi="http://sodipodi.sourceforge.net/DTD/sodipodi-0.dtd"
   xmlns="http://www.w3.org/2000/svg"
   xmlns:svg="http://www.w3.org/2000/svg">
  <defs
     id="defs10" />
  <sodipodi:namedview
     id="namedview10"
     pagecolor="#ffffff"
     bordercolor="#000000"
     borderopacity="0.25"
     inkscape:showpageshadow="2"
     inkscape:pageopacity="0.0"
     inkscape:pagecheckerboard="0"
     inkscape:deskcolor="#d1d1d1">
    <inkscape:page
       x="0"
       y="0"
       width="24"
       height="24"
       id="page2"
       margin="0"
       bleed="0" />
  </sodipodi:namedview>
  <path
     d="m 6.99998,11.5 c 0.41422,0 0.75,-0.3358 0.75,-0.75 0,-0.4142 -0.33578,-0.75 -0.75,-0.75 -0.41421,0 -0.75,0.3358 -0.75,0.75 0,0.4142 0.33579,0.75 0.75,0.75 z"
     fill="#212121"
     id="path1"
     style="fill:#ffffff" />
  <path
     d="m 10.25,10.75 c 0,0.4142 -0.3358,0.75 -0.75002,0.75 -0.41421,0 -0.75,-0.3358 -0.75,-0.75 0,-0.4142 0.33579,-0.75 0.75,-0.75 0.41422,0 0.75002,0.3358 0.75002,0.75 z"
     fill="#212121"
     id="path2"
     style="fill:#ffffff" />
  <path
     d="m 8.24998,14 c 0.41422,0 0.75,-0.3358 0.75,-0.75 0,-0.4142 -0.33578,-0.75 -0.75,-0.75 -0.41421,0 -0.75,0.3358 -0.75,0.75 0,0.4142 0.33579,0.75 0.75,0.75 z"
     fill="#212121"
     id="path3"
     style="fill:#ffffff" />
  <path
     d="m 11.5,13.25 c 0,0.4142 -0.3358,0.75 -0.75,0.75 -0.4142,0 -0.75002,-0.3358 -0.75002,-0.75 0,-0.4142 0.33582,-0.75 0.75002,-0.75 0.4142,0 0.75,0.3358 0.75,0.75 z"
     fill="#212121"
     id="path4"
     style="fill:#ffffff" />
  <path
     d="M 13.25,14 C 13.6642,14 14,13.6642 14,13.25 14,12.8358 13.6642,12.5 13.25,12.5 c -0.4142,0 -0.75,0.3358 -0.75,0.75 0,0.4142 0.3358,0.75 0.75,0.75 z"
     fill="#212121"
     id="path5"
     style="fill:#ffffff" />
  <path
     d="M 16.5,13.25 C 16.5,13.6642 16.1642,14 15.75,14 15.3358,14 15,13.6642 15,13.25 c 0,-0.4142 0.3358,-0.75 0.75,-0.75 0.4142,0 0.75,0.3358 0.75,0.75 z"
     fill="#212121"
     id="path6"
     style="fill:#ffffff" />
  <path
     d="m 12,11.5 c 0.4142,0 0.75,-0.3358 0.75,-0.75 C 12.75,10.3358 12.4142,10 12,10 c -0.4142,0 -0.75,0.3358 -0.75,0.75 0,0.4142 0.3358,0.75 0.75,0.75 z"
     fill="#212121"
     id="path7"
     style="fill:#ffffff" />
  <path
     d="m 15.25,10.75 c 0,0.4142 -0.3358,0.75 -0.75,0.75 -0.4142,0 -0.75,-0.3358 -0.75,-0.75 0,-0.4142 0.3358,-0.75 0.75,-0.75 0.4142,0 0.75,0.3358 0.75,0.75 z"
     fill="#212121"
     id="path8"
     style="fill:#ffffff" />
  <path
     d="m 17,11.5 c 0.4142,0 0.75,-0.3358 0.75,-0.75 C 17.75,10.3358 17.4142,10 17,10 c -0.4142,0 -0.75,0.3358 -0.75,0.75 0,0.4142 0.3358,0.75 0.75,0.75 z"
     fill="#212121"
     id="path9"
     style="fill:#ffffff" />
  <path
     d="m 4.90701,6.99933 c -1.77628,0 -3.08659,1.65883 -2.67524,3.38687 l 1.07152,4.5013 c 0.29491,1.2388 1.40178,2.1132 2.67525,2.1132 H 18.0172 c 1.2729,0 2.3794,-0.8736 2.6749,-2.1117 l 1.0743,-4.5013 C 22.1789,8.65932 20.8685,6.99933 19.0915,6.99933 Z M 3.69099,10.0388 C 3.50402,9.25334 4.09961,8.49933 4.90701,8.49933 H 19.0915 c 0.8077,0 1.4034,0.75454 1.2159,1.54017 l -1.0743,4.5013 c -0.1343,0.5628 -0.6373,0.9599 -1.2159,0.9599 H 5.97854 c -0.57885,0 -1.08197,-0.3975 -1.21602,-0.9606 z"
     fill="#212121"
     id="path10"
     style="fill:#ffffff" />
</svg>
